<svg width="602" height="402" viewBox="0 0 602 402" fill="none" xmlns="http://www.w3.org/2000/svg">
<g clip-path="url(#clip0_201_20261)">
<path d="M229.325 46.0354C229.325 46.0354 229.325 45.9141 229.325 45.8736C229.325 45.8332 229.325 45.7522 229.325 45.7118V0L8.8591 165.372C3.51937 169.538 0.080905 176.011 0 183.252V229.328H152.87L8.57593 337.58C3.51937 341.665 0.202263 347.895 0 354.853V401.333L220.79 235.76H220.749C225.968 231.593 229.325 225.161 229.366 217.96V217.879C229.366 217.879 229.366 217.758 229.366 217.718V183.454V171.965H76.4552L220.709 63.7942C225.927 59.6276 229.325 53.236 229.366 45.995L229.325 46.0354ZM214.034 183.494L168.161 217.879H15.291L61.1642 183.494H214.034Z" fill="#FAE7C6"/>
<path d="M564.636 337.499L420.423 229.328H573.293V183.616C573.293 183.616 573.293 183.494 573.293 183.454V183.373C573.293 176.132 569.854 169.66 564.596 165.493L344.008 0V45.8736C344.008 53.1147 347.366 59.5467 352.624 63.7538L496.919 172.006H344.049V217.879C344.049 225.161 347.447 231.633 352.705 235.8L573.414 401.333V355.46C573.414 348.178 570.016 341.665 564.677 337.458L564.636 337.499ZM359.299 183.454H512.169L558.042 217.839H405.172L359.299 183.454Z" fill="#FAE7C6"/>
<path d="M389.841 255.501V389.966H355.416V210.598H344.008V389.966V401.333H355.416H378.352H401.289V394.416V389.966V378.518V255.501H389.841Z" fill="#FAE7C6"/>
</g>
<defs>
<clipPath id="clip0_201_20261">
<rect width="602" height="401.333" fill="white"/>
</clipPath>
</defs>
</svg>
